<?xml version="1.0"?>
<svg xmlns="http://www.w3.org/2000/svg" id="Layer_1" data-name="Layer 1" viewBox="0 0 512 512" width="512" height="512"><title>Criativo</title>
<defs>
	<style type="text/css">

        .light{
            fill: #E7FC1B;
            stroke: black;
            stroke-width: 5px;
        }
	</style>
</defs>
    <path class="light" d="M267,103.434a7,7,0,0,0,7-7V62.306a7,7,0,1,0-14,0V96.434A7,7,0,0,0,267,103.434Z"/>
    <path class="light" d="M227.707,113.729a7,7,0,0,0,6.062-10.492L220.582,80.31a7,7,0,1,0-12.137,6.981l13.187,22.927A7,7,0,0,0,227.707,113.729Z"/>
    <path class="light" d="M202.127,130.62l-22.84-13.236a7,7,0,1,0-7.019,12.113l22.839,13.236a7,7,0,1,0,7.02-12.113Z"/>
    <path class="light" d="M326.965,77.733a7,7,0,0,0-9.558,2.577l-13.188,22.927a7,7,0,1,0,12.134,6.981l13.189-22.927A7,7,0,0,0,326.965,77.733Z"/>
    <path class="light" d="M339.753,143.678a6.974,6.974,0,0,0,3.5-.945L366.1,129.5a7,7,0,1,0-7.02-12.113L336.236,130.62a7,7,0,0,0,3.517,13.058Z"/>
    <path class="light" d="M374,172H340a7,7,0,0,0,0,14h34a7,7,0,0,0,0-14Z"/>
    <path class="light" d="M195,172H161a7,7,0,0,0,0,14h34a7,7,0,0,0,0-14Z"/>
    <path class="light" d="M267,111.516a55.153,55.153,0,0,0-55,55.18c0,21.574,10.354,33.173,22.343,46.606q1.194,1.335,2.419,2.716c8.172,9.217,6.135,16.225,5.823,17.126a6.736,6.736,0,0,0,.351,6.637A7,7,0,0,0,249,243h36a7.029,7.029,0,0,0,6.377-9.921c-.031-.069-2.742-7.349,5.861-17.056q1.226-1.381,2.419-2.718C311.646,199.872,322,188.271,322,166.7A55.154,55.154,0,0,0,267,111.516Zm22.212,92.463c-.806.9-1.623,1.841-2.45,2.774-7.111,8.022-9.536,16.247-9.789,22.247H257.028c-.252-6-2.678-14.226-9.79-22.248-.827-.932-1.644-1.859-2.45-2.763C233.475,191.315,226,182.935,226,166.7a41,41,0,1,1,82,0C308,182.931,300.525,191.3,289.212,203.979Z"/>
    <path d="M284,245H250a7,7,0,0,0,0,14h34a7,7,0,0,0,0-14Z"/>
    <path d="M278,261H255a7,7,0,0,0,0,14h23a7,7,0,0,0,0-14Z"/>
    <path d="M422.039,259.675a162.706,162.706,0,0,0-3.867-157.631C390.22,53.98,340.6,24.1,285.425,22.117q-2.246-.082-4.5-.106A174.772,174.772,0,0,0,104.414,187.147c-.177,2.906-.252,26.57-.271,33.975L72.4,304.261A14.557,14.557,0,0,0,85.911,324H128v47.951a44.615,44.615,0,0,0,45.884,44.276c2.932-.092,39.354-.252,62.27-.34l17.331,68.82A7.03,7.03,0,0,0,260.3,490H416.6a7,7,0,0,0,6.763-8.8c-.262-.984-26.158-99.136-20.426-160.712C404.5,303.761,420.475,263.577,422.039,259.675ZM397.178,426.494c3.811,21.228,7.972,39.328,10.448,49.506H265.756l-17.314-68.774A6.942,6.942,0,0,0,241.653,402h-.025c-2.608,0-63.922.17-68.086.3A30.673,30.673,0,0,1,142,371.951V316.875A6.581,6.581,0,0,0,135.378,310H85.911a.517.517,0,0,1-.377-.261.464.464,0,0,1-.051-.454l32.2-84.351a7.077,7.077,0,0,0,.46-2.489c.029-12.212.122-32.363.252-34.49A160.773,160.773,0,0,1,278.949,36c.6,0,1.215,0,1.82.01q2.082.023,4.152.1a143.4,143.4,0,0,1,71.713,21.717,149.677,149.677,0,0,1,52.834,195.68c-.1.2-.2.4-.283.613-.75,1.85-18.366,45.531-20.184,65.071C386.488,346.182,389.239,382.284,397.178,426.494Z"/>
</svg>
